<svg xmlns="http://www.w3.org/2000/svg" width="99" height="53" viewBox="0 0 99 53" fill="none">
  <g clip-path="url(#clip0_159_5486)">
    <path d="M85.6565 38.0669C88.741 37.5925 91.8255 37.0954 94.7957 36.4403C96.1894 36.1466 97.5831 35.8077 98.9312 35.4011C98.065 34.7354 97.1121 34.1883 96.098 33.7745C93.6279 32.7219 91.0759 31.8682 88.4668 31.2216C86.1039 30.5281 83.7004 29.9774 81.2697 29.5725C78.6651 29.211 76.0147 29.1206 73.41 28.8269C78.1167 27.5392 83.0519 26.9518 87.3244 24.3086C88.444 23.6082 87.9185 22.4109 86.8446 22.0494C80.2038 20.31 73.2194 20.31 66.5785 22.0494C67.2505 21.5487 67.9525 21.0885 68.6805 20.6714C71.3766 19.0899 74.3925 18.0959 77.0429 16.4015C77.2151 16.2961 77.3537 16.1448 77.4426 15.9649C77.5315 15.7851 77.5672 15.584 77.5455 15.3849C73.1371 14.349 68.5327 14.4579 64.1795 15.7012C59.9733 16.92 56.0308 18.896 52.5499 21.5298C54.3196 18.4074 56.2726 15.39 58.399 12.4932C61.3692 8.4041 65.2534 4.85719 67.5381 0.293677C64.57 0.160482 61.6026 0.574147 58.7874 1.51361C55.4704 3.61643 52.4901 6.19783 49.9453 9.17218C47.7369 11.5842 45.749 14.1849 44.0048 16.9437C44.0048 15.046 44.1647 13.1709 44.0048 11.2732C43.9587 9.3832 43.7446 7.50083 43.3651 5.64789C42.0377 4.08299 40.5942 2.61801 39.0468 1.2651C38.4071 0.722901 37.7445 0.225889 37.059 -0.248535C37.059 3.75019 38.11 7.63595 38.1329 11.6121C38.1329 13.5776 37.9958 15.5204 37.8587 17.4859C36.349 14.694 34.3177 12.2102 31.8726 10.1662C29.4156 8.92584 26.825 7.96337 24.15 7.29707C21.5546 6.69118 18.8767 6.50806 16.2217 6.75489C20.0156 9.31702 23.6689 12.0771 27.1659 15.0234C29.5315 17.1927 31.3541 19.8766 32.4895 22.8627C28.816 19.1495 24.248 16.4207 19.2148 14.9331C15.5923 14.8992 11.9933 15.5114 8.59053 16.7404C8.72687 16.8905 8.91351 16.9868 9.11602 17.0115C13.5215 17.372 17.7869 18.716 21.591 20.9424C23.9817 22.1858 26.1135 23.8644 27.8742 25.89C22.0708 21.6428 14.6224 17.9829 8.13358 21.3717C7.3796 21.7783 7.08258 22.8402 8.13358 23.0209C12.5069 23.6818 16.7523 24.9997 20.7228 26.9292C22.5299 27.7913 24.2189 28.8768 25.7493 30.1598C24.386 29.4433 22.955 28.8607 21.4768 28.4203C16.6906 27.1566 11.7621 26.4963 6.8084 26.4548L5.48321 26.8163C4.25473 27.1945 3.06209 27.6782 1.91895 28.2621C2.08412 28.3929 2.28106 28.4786 2.49014 28.5107C7.96565 29.7698 13.1769 31.9639 17.8896 34.9944C20.4613 36.3713 22.8876 37.9984 25.1324 39.8516C22.369 39.1314 19.5103 38.8343 16.6558 38.9706C15.4394 39.0163 14.2266 39.1294 13.023 39.3095C10.5859 40.0678 8.27598 41.1794 6.16866 42.6078C4.97915 43.3544 3.8348 44.1691 2.74147 45.0478C8.29351 47.578 15.5134 46.6969 21.431 46.3129C26.0436 46.1549 30.6048 45.3016 34.957 43.7826L33.9289 44.867C31.5756 47.3715 28.7092 49.3509 25.5208 50.6731C25.3159 50.7345 25.1294 50.845 24.978 50.9947C24.8265 51.1445 24.7148 51.3289 24.6526 51.5315C27.143 51.5315 29.6563 51.3282 32.1467 51.283C35.0098 50.1912 37.7635 48.8373 40.372 47.2391C40.9432 46.9002 41.4915 46.5388 42.017 46.1773C40.5548 47.9395 38.8412 49.5209 37.4475 51.3282C37.3563 51.4166 37.2838 51.522 37.2343 51.6383C37.1849 51.7547 37.1594 51.8797 37.1594 52.006C37.1594 52.1322 37.1849 52.2571 37.2343 52.3735C37.2838 52.4899 37.3563 52.5953 37.4475 52.6837C40.7298 52.1865 43.8549 50.9582 46.5866 49.0916C46.7037 49.0207 46.8377 48.9817 46.975 48.9787L48.3459 47.6458C49.5797 46.4032 50.7906 45.0929 51.933 43.7148C51.7978 44.7905 51.8993 45.8824 52.2306 46.9157C52.5618 47.949 53.115 48.8994 53.8522 49.7016C54.1454 49.9463 54.5198 50.075 54.9033 50.063C55.6344 47.8039 56.297 45.5447 57.188 43.2855C57.2355 43.1812 57.3067 43.089 57.396 43.0162C57.4853 42.9434 57.5903 42.8919 57.703 42.8657C57.8156 42.8395 57.9329 42.8392 58.0457 42.8651C58.1584 42.8909 58.2637 42.942 58.3533 43.0145C65.0706 47.7135 73.2958 47.9168 81.2012 48.8657C78.6503 45.2024 75.1232 42.3092 71.011 40.5068C74.3049 39.3564 77.7016 38.5168 81.1555 37.9991C82.6549 37.8885 84.1612 37.9112 85.6565 38.0669Z" fill="#417C61"/>
    <path d="M52.8925 30.8829C48.7317 31.0155 44.6771 32.2144 41.1258 34.362C39.8074 35.0486 38.5262 35.8027 37.2873 36.6212C38.5356 35.1269 39.9368 33.7641 41.4685 32.5547C45.2841 29.5048 49.9222 26.5679 54.9716 26.455C55.6799 26.455 55.9769 25.5287 55.1087 25.5061C49.4438 25.8117 44.001 27.7866 39.4807 31.1766L38.8638 31.6285C40.3225 29.2543 42.3067 27.2383 44.6672 25.732C45.5354 25.235 44.4616 24.5121 43.799 24.8057C41.1943 25.925 38.8929 27.6355 37.0817 29.7985C38.6082 26.0317 40.9474 22.6393 43.9361 19.8582C44.5073 19.3612 43.3877 18.9997 42.9765 19.2934C39.5043 21.8702 36.7073 25.2324 34.8197 29.0981C35.1687 26.8491 35.657 24.6235 36.282 22.4336C36.4648 21.8689 35.2767 21.8689 35.1168 22.4336C34.2278 24.8482 33.4652 27.3064 32.832 29.7985C32.3935 25.9573 32.4703 22.0755 33.0605 18.2542C33.0605 17.712 32.1008 17.7346 31.9638 18.2542C31.2762 20.0502 30.7487 21.9023 30.3872 23.7892C30.1739 25.0154 30.029 26.2522 29.9532 27.4942C29.2185 24.8318 28.2475 22.2387 27.0515 19.7452C26.8687 19.3386 25.8405 19.6322 26.0233 20.0615C27.1619 23.2325 27.9285 26.5224 28.3081 29.8663C27.701 28.8662 27.0374 27.9008 26.3203 26.9746C22.4059 21.615 17.0344 17.4631 10.8294 15.001C10.601 15.001 10.1897 15.2043 10.5096 15.3625C16.0165 18.3367 20.6343 22.6923 23.8984 27.9912C25.2036 29.9819 26.3569 32.0661 27.3485 34.2265C25.9251 32.9777 24.3964 31.8515 22.7789 30.8603C18.501 28.4838 13.8766 26.7767 9.07018 25.7998C8.31619 25.619 7.58505 26.5679 8.52181 26.8616C12.8062 28.1184 16.896 29.9503 20.6769 32.3062C22.4517 33.4555 24.0917 34.7967 25.5663 36.3049C26.2552 37.0158 26.8963 37.7704 27.4856 38.564C24.7242 37.1361 21.8421 35.9494 18.8719 35.0172C12.9786 32.7918 6.54036 32.3899 0.410798 33.865C-0.228943 34.0457 -0.0918391 34.7235 0.57075 34.6105C6.35453 33.921 12.2193 34.7873 17.5467 37.1182L18.3007 37.4345C13.9451 36.5786 9.4325 36.9786 5.30025 38.5867C4.50057 38.9255 4.93469 39.897 5.73436 39.6485C10.3954 38.5807 15.2592 38.7521 19.8315 40.1455C21.6609 40.5407 23.4621 41.0538 25.2236 41.6817C26.1159 41.9949 26.9673 42.412 27.7597 42.9243C28.4223 43.3987 28.9478 44.0086 29.5876 44.5057C29.8311 44.656 30.1074 44.7467 30.3935 44.7703C30.6796 44.7938 30.9673 44.7496 31.2326 44.6412C31.6765 44.7621 32.1442 44.7695 32.5917 44.6629C33.0393 44.5562 33.4522 44.3388 33.7916 44.0313C33.9821 43.9736 34.1602 43.8817 34.3171 43.7602C35.0134 43.0682 35.6408 42.3117 36.1906 41.501C36.7625 40.7776 37.3971 40.1048 38.087 39.4903C39.5022 38.3108 41.033 37.274 42.6566 36.3953C44.1646 35.5368 45.7182 34.7009 47.2262 34.0006C48.9084 33.1581 50.7246 32.6079 52.5954 32.374C53.6236 32.1706 54.0577 30.9507 52.8925 30.8829Z" fill="#35A879"/>
    <path d="M91.3685 34.5653C88.0517 34.7686 84.7579 35.2447 81.521 35.9886C79.9563 36.39 78.4278 36.9189 76.9514 37.5699C78.2836 36.6153 79.6722 35.7403 81.1098 34.9494C84.399 32.9653 87.9961 31.5304 91.7569 30.7021C92.9221 30.4762 92.6023 29.2562 91.4827 29.3918C87.2116 29.9962 83.0861 31.3585 79.3048 33.4131C80.1022 32.4667 80.9487 31.5618 81.8409 30.7021C85.1832 27.6622 88.9833 25.1546 93.1049 23.2695C94.0874 22.8176 93.2877 21.9365 92.4423 22.2528C87.712 23.8756 83.299 26.2905 79.3962 29.3918C77.5034 30.9205 75.8076 32.6731 74.3468 34.6104L73.9584 35.1527C74.0726 34.7234 74.1869 34.2942 74.3239 33.865C74.8037 32.3061 75.3521 30.7473 75.9005 29.1885C77.0911 25.409 78.6203 21.7422 80.47 18.2315C80.7214 17.7797 79.8303 17.7119 79.6246 18.0734C77.2041 21.7113 75.0655 25.5251 73.2272 29.4822C73.113 28.827 72.9531 28.1719 72.7931 27.5167C72.2154 25.4426 71.4507 23.4238 70.5083 21.4847C69.5487 19.4966 68.3606 17.6442 67.3553 15.6787C67.1954 15.3398 66.3957 15.6787 66.6013 16.0176C67.4804 17.8516 68.2434 19.7379 68.8861 21.6655C69.5289 23.4739 70.048 25.323 70.4398 27.2004C69.5829 25.0314 68.5276 22.9443 67.2868 20.9651C67.0583 20.5811 66.1901 20.9651 66.4185 21.3266C67.1735 22.7823 67.8151 24.2928 68.3378 25.8449L68.1321 25.4609C66.7701 23.1877 65.0501 21.1438 63.0371 19.4063C60.8772 17.6936 58.6273 16.0949 56.2969 14.6169C55.8171 14.278 54.629 14.8879 55.2459 15.3398C59.3671 18.2278 62.805 21.9663 65.3219 26.2967C66.4962 28.4551 67.4454 30.7259 68.155 33.0742L67.5838 32.3287C66.6699 31.1922 65.6936 30.1061 64.6592 29.0755C63.544 28.0223 62.3359 27.0697 61.0493 26.229C60.7523 26.003 59.9983 26.3645 60.3867 26.6808C61.4499 27.6332 62.4004 28.7019 63.2199 29.8663C63.8752 30.6918 64.4854 31.5515 65.0477 32.4417C63.7316 31.3495 62.2989 30.4026 60.7751 29.6177C60.4552 29.437 59.7013 29.8662 60.1125 30.1825C61.7644 31.6389 63.2438 33.276 64.5222 35.0623C65.2076 35.9208 65.8474 36.8019 66.5328 37.6829C66.8755 38.1122 67.2182 38.564 67.5838 38.9932C67.9721 39.4949 68.4624 39.9105 69.0232 40.2132C69.0352 40.356 69.0352 40.4996 69.0232 40.6424C69.0232 42.0205 70.7597 42.0205 71.6507 41.2524C72.412 41.2225 73.1742 41.2225 73.9355 41.2524C75.3749 41.0265 76.6087 39.7388 77.911 38.9932C79.2939 38.3017 80.7303 37.72 82.2065 37.2537C85.1986 36.3509 88.253 35.6639 91.3456 35.1978C92.0539 35.356 92.1224 34.4297 91.3685 34.5653Z" fill="#35A879"/>
    <path d="M56.3656 24.9639C56.2155 24.904 56.051 24.8892 55.8925 24.9214C55.734 24.9535 55.5886 25.0312 55.4745 25.1446C54.4823 26.0272 53.5793 27.0033 52.7784 28.0589C52.0622 29.067 51.4061 30.1155 50.8135 31.1992C50.585 31.6059 50.3794 32.0351 50.1738 32.4643C50.1738 31.9899 50.3109 31.5155 50.4023 31.041C50.8694 28.89 51.4956 26.7758 52.2758 24.7154C52.3443 24.0092 52.3443 23.298 52.2758 22.5918C50.6519 25.1441 49.2969 27.8541 48.2317 30.6796C48.1314 30.9357 48.0549 31.2004 48.0032 31.4703C47.9919 31.3576 47.9919 31.2441 48.0032 31.1314C48.2943 28.6404 48.7214 26.1668 49.2827 23.7214C48.7572 24.3314 48.2546 24.9413 47.7976 25.5738C47.2493 26.9971 46.7238 28.4204 46.2896 29.8889C46.2896 29.7307 46.2896 29.5726 46.1297 29.4144C45.6668 28.1072 45.0125 26.8741 44.1876 25.7546L43.5936 25.0768C43.2043 24.8299 42.7811 24.6397 42.337 24.512L41.8571 24.3991C42.7254 26.1091 43.363 27.9245 43.7535 29.7985C42.607 28.5626 41.292 27.4905 39.8465 26.6131C38.7608 26.0886 37.5574 25.8475 36.3508 25.9128C38.6628 26.9943 40.6306 28.682 42.0399 30.7925C42.1523 30.95 42.2516 31.1162 42.337 31.2895L42.0628 31.0637C40.7028 30.1439 39.2381 29.3856 37.6988 28.8045C37.1232 28.5973 36.5358 28.4237 35.9395 28.2849C35.8122 28.3174 35.6785 28.3174 35.5511 28.2849H34.8657H34.363C33.9645 28.2899 33.5671 28.3277 33.1749 28.3978H32.8779C34.1387 28.787 35.362 29.286 36.5336 29.8889C37.8872 30.5177 39.1541 31.3149 40.3035 32.261C42.0562 33.6179 43.4774 35.3475 44.4618 37.3215V37.4797C44.4618 37.7508 44.4618 37.9993 44.4618 38.2704C44.4984 38.4479 44.5956 38.6075 44.737 38.7226C44.8784 38.8378 45.0555 38.9015 45.2386 38.903C45.3328 39.0337 45.44 39.1547 45.5585 39.2644C45.8338 39.4732 46.1711 39.5865 46.5181 39.5865C46.8651 39.5865 47.2024 39.4732 47.4777 39.2644C47.7712 39.2845 48.0643 39.2218 48.3231 39.0837C48.4734 39.0146 48.6121 38.9232 48.7344 38.8126C48.9532 38.8546 49.1781 38.8546 49.397 38.8126C49.7056 38.7991 50.0026 38.6921 50.2478 38.5063C50.493 38.3204 50.6745 38.0646 50.7678 37.7734C50.9278 37.2312 50.9735 36.689 51.1106 36.1468C51.2476 35.6046 51.4761 35.0849 51.6817 34.5653C52.1387 33.5035 52.5957 32.4643 53.0298 31.4025C53.7333 29.2158 54.8931 27.1993 56.4341 25.4835C56.4914 25.4044 56.5161 25.3068 56.5034 25.2104C56.4907 25.1139 56.4414 25.0258 56.3656 24.9639Z" fill="#8CCA7C"/>
    <path d="M61.6211 26.6358C59.8061 27.6323 58.1443 28.88 56.6859 30.3408C56.3432 30.6797 56.0233 31.0637 55.7034 31.4252C56.5988 29.5037 57.8284 27.7527 59.3363 26.2517C59.7704 25.8677 58.9478 25.5966 58.628 25.8225C57.5061 26.6193 56.4376 27.4871 55.4293 28.4205C54.5209 29.3708 53.7096 30.4075 53.0074 31.5156C52.3114 32.6128 51.6857 33.7522 51.1338 34.9269C50.8368 35.5369 50.5398 36.1469 50.2656 36.7568C49.9915 37.3668 49.6487 38.0446 50.2656 38.6094C50.4427 38.8039 50.6792 38.9357 50.9392 38.9846C51.1991 39.0336 51.4681 38.997 51.705 38.8805C51.8846 38.8042 52.0535 38.7055 52.2077 38.5868C52.4099 38.6996 52.6381 38.7589 52.8703 38.7589C53.1025 38.7589 53.3307 38.6996 53.5329 38.5868C54.5363 37.5059 55.3129 36.2389 55.8177 34.8591C56.4685 33.6034 57.2332 32.4086 58.1025 31.2896C59.8556 29.1569 62.0532 27.4231 64.5456 26.2065C63.5623 26.2864 62.5854 26.4298 61.6211 26.6358Z" fill="#8CCA7C"/>
    <path d="M69.7089 30.047C67.5757 30.3571 65.5167 31.0459 63.6314 32.0803C62.6424 32.608 61.702 33.2203 60.8211 33.9102C60.5469 34.1135 60.3184 34.3394 60.0442 34.5653C60.5548 33.7633 61.1359 33.0073 61.7807 32.3062C63.1644 30.8432 64.8057 29.6413 66.6244 28.7593H63.6771C62.2904 29.3946 60.9988 30.2156 59.8386 31.1992L59.4959 31.5381C59.8893 30.8135 60.3899 30.1511 60.981 29.5726C61.0287 29.5345 61.0672 29.4863 61.0936 29.4316C61.1201 29.3768 61.1338 29.3169 61.1338 29.2563C61.1338 29.1956 61.1201 29.1358 61.0936 29.081C61.0672 29.0263 61.0287 28.9782 60.981 28.94C60.8516 28.8574 60.7009 28.8134 60.5469 28.8134C60.3929 28.8134 60.2421 28.8574 60.1128 28.94C58.6374 29.9716 57.4122 31.3142 56.5257 32.871C56.0915 33.5939 55.7488 34.362 55.3833 35.1301C54.9013 35.9475 54.5978 36.8556 54.4922 37.7959C54.4922 38.2478 55.2005 38.4963 55.566 38.5189C55.8372 38.5489 56.1117 38.5177 56.369 38.4277C56.6262 38.3377 56.8595 38.1912 57.0512 37.9993L57.2339 37.7282L57.828 37.6152C58.2432 37.4472 58.5947 37.155 58.8333 36.7794C58.9434 36.9045 59.0854 36.9981 59.2446 37.0504C59.3885 37.0715 59.5348 37.0715 59.6787 37.0504C60.8238 35.6429 62.1355 34.3762 63.5856 33.2776C65.5714 31.6973 67.8546 30.5224 70.3029 29.8211C70.0886 29.8447 69.884 29.9226 69.7089 30.047Z" fill="#8CCA7C"/>
    <path d="M39.9378 35.1749C41.8693 36.2834 43.5741 37.7393 44.9643 39.4674C45.2638 39.5077 45.5686 39.4633 45.8436 39.3394C46.1186 39.2154 46.3524 39.0169 46.518 38.767C47.2948 37.6374 45.2842 36.2142 44.4617 35.7172C43.3697 35.0863 42.2132 34.5713 41.0117 34.1809C38.3572 33.0211 35.4484 32.547 32.5579 32.8028C32.4104 32.8206 32.2726 32.8853 32.1655 32.9871C32.0583 33.089 31.9876 33.2225 31.9639 33.3676C34.7553 32.9995 37.5873 33.6413 39.9378 35.1749Z" fill="#8CCA7C"/>
  </g>
  <defs>
    <clipPath id="clip0_159_5486">
      <rect width="99" height="53" fill="white"/>
    </clipPath>
  </defs>
</svg>