<svg width="1440" height="898" viewBox="0 0 1440 898" fill="none" xmlns="http://www.w3.org/2000/svg">
<path d="M441.646 167.775C441.646 167.775 550.907 150.537 590.319 119.026C620.912 92.7922 631.942 105.038 637.327 109.042C642.712 113.046 655.901 128.776 674.475 128.022C693.049 127.268 777.232 198.22 790.343 198.506C803.454 198.792 597.837 253.521 554.679 241.016C511.521 228.51 441.646 167.775 441.646 167.775Z" fill="url(#paint0_linear_160_6660)"/>
<path d="M662.769 151.681C657.566 149.081 654.964 136.081 652.363 136.081C629.496 133.481 636.39 111.174 619.741 102.854C612.769 103.686 603.326 107.872 590.319 119.026C550.959 150.537 441.646 167.775 441.646 167.775C441.646 167.775 511.599 228.51 554.679 241.015C578.092 247.775 649.267 234.776 707.435 221.438C694.558 197.232 684.153 171.233 662.769 151.681Z" fill="url(#paint1_linear_160_6660)"/>
<path d="M790.342 198.506C777.335 198.272 693.075 127.268 674.475 128.022C655.874 128.776 642.789 113.02 637.326 109.042C634.178 106.728 629.209 101.71 619.74 102.854C636.389 111.174 629.496 133.534 652.362 136.082C654.964 136.082 657.565 149.081 662.768 151.681C684.152 171.233 694.558 197.232 707.565 221.438C756.524 210.232 796.352 198.636 790.342 198.506Z" fill="url(#paint2_linear_160_6660)"/>
<path d="M1440 51.0629C1432.72 46.149 1425.33 41.2611 1418.62 36.1132C1413.41 32.1353 1398.95 16.1975 1393.3 15.3136C1379.91 12.9996 1360.4 40.8711 1352.28 50.2309C1339.09 65.4146 1327.2 81.4303 1312.22 95.9121C1300.43 107.274 1286.2 135.821 1268.77 139.305C1255.19 141.905 1235.92 126.488 1224.31 119.312C1206.39 108.184 1190.16 96.3021 1173.53 83.6403C1158.24 71.9925 1149.34 59.6948 1137.11 44.823C1130.32 36.5292 1120.18 25.0114 1109.54 21.4235C1092.79 15.7036 1099.65 22.8795 1087.19 26.1554C1061.18 32.9673 1063.49 1.42985 1039.98 0.155874C1022.29 -0.806109 1006.5 27.3513 997.444 40.4811C983.396 60.8907 964.353 78.1284 946.377 95.5221C932.043 109.38 914.562 119.546 896.742 127.892C868.958 140.891 835.972 161.691 805.848 166.553L908.162 261.867C974.161 261.867 1043.02 268.289 1108.47 258.981C1168.98 250.375 1228.76 238.493 1288.96 227.158C1339.84 217.59 1390.03 207.918 1440.1 195.672L1440 51.0629Z" fill="url(#paint3_linear_160_6660)"/>
<path d="M1224.32 119.234C1206.39 108.106 1190.16 96.2244 1173.53 83.5626C1158.24 71.9148 1149.34 59.6171 1137.11 44.7453C1130.33 36.4515 1120.18 24.9337 1109.54 21.3458C1098.02 17.4198 1097.68 19.5778 1094.53 22.3597C1107.38 27.0136 1114.14 41.9894 1117.94 55.5351C1133.55 99.7343 1159.57 133.534 1182.98 172.533C1198.59 197.831 1222.88 214.392 1239.59 236.388L1288.78 227.08C1298.12 225.338 1307.41 223.57 1316.72 221.88L1265.57 139.514C1252.31 139.618 1235.03 125.864 1224.32 119.234Z" fill="url(#paint4_linear_160_6660)"/>
<path d="M422.526 109.12C389.592 91.2581 356.969 66.9226 325.362 46.4349C308.921 35.7751 299.972 32.0572 280.773 38.1671C254.16 46.591 256.58 39.8051 236.757 22.1774C218.131 5.61573 207.959 9.04761 187.174 20.8254C168.44 31.4334 150.464 43.3264 133.376 56.4187C112.746 72.2265 85.119 78.6483 61.8621 90.5301C39.2816 102.048 22.6065 115.568 0 120.846V273.931C91.3885 274.191 182.855 275.153 274.218 273.931C337.771 273.021 401.324 266.989 465.371 266.989H608.138C623.149 266.989 702.805 277.597 710.531 261.789C659.647 230.226 606.473 207.814 553.508 177.785C510.298 153.033 466.646 133.065 422.526 109.12Z" fill="url(#paint5_linear_160_6660)"/>
<path d="M553.509 177.655C510.299 153.085 466.647 133.065 422.526 109.12C389.592 91.2581 356.97 66.9226 325.362 46.435C308.921 35.7752 299.972 32.0573 280.774 38.1672C272.163 40.7671 266.622 42.0151 262.355 41.7031C264.541 42.3011 266.154 43.4971 264.749 47.683C277.756 47.683 290.763 45.0831 301.169 50.283C321.981 60.6828 314.176 91.8822 329.785 107.482C373.411 158.363 421.564 202.458 446.85 267.145C452.989 267.145 459.154 266.937 465.346 266.937H608.113C623.123 266.937 702.779 277.545 710.505 261.737C659.647 230.096 606.396 207.632 553.509 177.655Z" fill="url(#paint6_linear_160_6660)"/>
<path d="M1440 104.284C1439.32 104.518 1438.62 104.804 1437.95 105.012C1424.94 109.276 1413.18 109.224 1399.57 109.224C1369.29 109.224 1339.56 109.796 1310.06 105.792C1293.1 103.504 1265.5 99.1621 1249.86 106.52C1240.42 110.992 1236.7 119.52 1225.51 123.16C1217.92 125.76 1207.74 125.526 1199.65 126.54C1186.42 127.915 1173.12 128.497 1159.83 128.282C1142.94 128.282 1138.03 132.468 1123.41 140.371C1099.26 152.888 1074.15 163.435 1048.3 171.909C1002.1 187.509 967.657 158.051 925.306 146.975C890.29 137.823 867.06 111.954 829.053 114.424C792.06 116.816 773.252 144.765 741.982 160.781C718.127 173.001 690.11 177.863 664.694 185.559C639.278 193.254 614.72 203.524 589.46 212.442C563.212 221.698 537.093 231.136 510.064 239.638C489.253 246.215 467.999 250.609 446.875 256.537C436.86 259.345 422.682 260.749 415.658 268.523C434.363 285.241 469.014 287.815 492.635 293.093C524.71 300.216 556.318 308.692 588.393 315.972C649.943 329.778 712.482 332.326 774.683 341.816C822.497 349.096 869.505 360.015 917.762 365.787C977.101 373.015 1035.63 372.677 1095.39 372.677C1210.58 372.677 1325.3 376.759 1440.34 377.669L1440 104.284Z" fill="url(#paint7_linear_160_6660)"/>
<path d="M1006.16 253.079C985.347 234.88 974.941 206.28 951.528 193.28C930.717 180.281 907.304 177.681 883.891 172.481C868.282 169.881 865.681 149.081 857.876 133.482C853.35 122.172 838.964 118.74 826.659 114.606C791.045 117.908 772.341 145.077 741.67 160.781C717.815 173.001 689.797 177.863 664.381 185.559C638.965 193.255 614.408 203.524 589.148 212.442C562.899 221.698 536.781 231.136 509.752 239.638C488.94 246.216 467.687 250.609 446.563 256.537C436.547 259.345 422.37 260.749 415.346 268.523C434.05 285.241 468.701 287.815 492.322 293.093C524.398 300.217 556.005 308.692 588.081 315.972C649.631 329.778 712.17 332.326 774.37 341.816C822.185 349.096 869.193 360.015 917.449 365.787C976.788 373.015 1035.32 372.677 1095.08 372.677C1109.61 372.677 1124.15 372.738 1138.7 372.859C1135.37 370.103 1131.96 367.425 1128.45 364.877C1079 333.678 1050.38 289.479 1006.16 253.079Z" fill="url(#paint8_linear_160_6660)"/>
<path d="M1440 374.445V104.284C1439.32 104.518 1438.62 104.804 1437.94 105.012C1424.94 109.276 1413.18 109.224 1399.57 109.224C1369.29 109.224 1339.56 109.796 1310.06 105.792C1293.1 103.504 1265.49 99.1621 1249.86 106.52C1240.42 110.992 1236.7 119.52 1225.51 123.16C1217.91 125.76 1207.74 125.526 1199.65 126.54C1186.42 127.915 1173.12 128.497 1159.82 128.282C1142.94 128.282 1138.02 132.468 1123.4 140.371C1099.26 152.888 1074.14 163.435 1048.3 171.909C1021.69 180.931 998.874 174.951 976.449 166.163C980.534 170.075 985.377 173.109 990.679 175.081C1147.94 225.962 1303.29 285.111 1440 374.445Z" fill="url(#paint9_linear_160_6660)"/>
<path d="M990.549 175.081C985.247 173.109 980.405 170.074 976.32 166.163C959.696 159.689 943.151 151.681 925.175 146.975C890.16 137.823 866.929 111.954 828.922 114.424L826.841 114.606C839.068 118.74 853.454 122.172 858.058 133.481C865.862 149.081 868.464 169.881 884.072 172.481C907.485 177.68 930.898 180.28 951.71 193.28C975.123 206.28 985.529 234.879 1006.34 253.079C1050.56 289.478 1079.18 333.678 1128.61 364.877C1132.12 367.477 1135.53 370.077 1138.86 372.859C1239.4 373.665 1339.66 376.863 1440.18 377.669V374.445C1303.29 285.11 1147.94 225.962 990.549 175.081Z" fill="url(#paint10_linear_160_6660)"/>
<path d="M-0.0263672 385.599L1439.97 333.886V168.373C1383.26 157.011 1226.66 130.466 1130.14 161.223C1010.48 199.312 880.404 275.621 757.252 260.021C634.1 244.422 604.652 244.266 538.731 204.486C472.811 164.707 339.305 130.804 294.196 146.871C257.776 159.871 70.2125 205.474 -0.0263672 222.426V385.599Z" fill="url(#paint11_linear_160_6660)"/>
<path d="M1274.11 289.479C1175.25 269.719 1093.28 199.754 1009.07 199.286C1010.58 198.688 1009.98 197.752 1010.48 196.245C1011.91 196.245 1013.49 198.038 1013.73 195.204C1013.79 194.301 1013.59 193.4 1013.16 192.605C1012.74 191.825 1011.99 191.695 1011.6 191.019C1010.58 189.355 1012.71 184.779 1010.19 184.597C1010.03 183.453 1010.87 182.803 1010.74 181.685C1010.53 179.813 1009.28 180.801 1009.96 178.877C1010.35 177.707 1012.56 174.119 1009.77 174.145C1009.86 173.163 1009.75 172.175 1009.46 171.233C1009.46 170.973 1008.81 170.869 1008.66 170.193C1008.5 169.517 1008.97 168.919 1008.92 168.399C1008.76 166.761 1007.33 166.033 1006.91 164.655C1006.63 163.719 1006.76 164.317 1006.91 163.329C1007.07 162.341 1007.41 162.055 1007.2 161.327C1006.83 160.027 1005.53 160.391 1005.2 158.727C1004.86 157.063 1005.77 156.127 1005.2 154.801C1005.01 154.333 1004.39 154.567 1004.1 153.787C1003.82 153.007 1004.1 152.513 1004.1 151.993C1003.81 151.047 1003.34 150.165 1002.72 149.393C1003.25 147.682 1003.15 145.837 1002.44 144.193C1001.63 142.581 1001.03 142.477 1000.72 143.387C1000.47 143.699 1000.25 144.039 1000.07 144.401C999.397 145.979 999.278 147.739 999.733 149.393C999.724 149.471 999.724 149.55 999.733 149.627C999.563 149.897 999.423 150.185 999.317 150.485C998.97 151.042 998.707 151.646 998.536 152.279C998.536 152.799 998.692 153.605 998.536 154.073C998.38 154.541 997.626 154.619 997.444 155.087C997.299 155.659 997.299 156.258 997.444 156.829C996.664 157.753 996.168 158.881 996.013 160.079C995.961 160.293 995.961 160.516 996.013 160.729C995.773 160.933 995.601 161.205 995.518 161.509C995.336 162.263 995.805 162.913 995.805 163.511C995.805 164.109 995.805 164.109 995.805 164.369C995.488 164.704 995.216 165.08 994.998 165.487C994.83 165.827 994.699 166.185 994.608 166.553C994.1 167.124 993.766 167.827 993.645 168.581C993.645 169.101 993.984 170.011 993.906 170.375C993.827 170.739 993.203 171.155 993.099 171.415C992.881 171.987 992.783 172.598 992.813 173.209C992.705 173.581 992.652 173.966 992.657 174.353C991.07 174.353 991.33 175.861 991.825 177.187C991.678 177.566 991.564 177.958 991.486 178.357C991.383 178.796 991.395 179.255 991.523 179.688C991.651 180.121 991.889 180.514 992.215 180.827C991.968 181.117 991.829 181.485 991.825 181.867C991.825 183.011 992.527 183.661 992.371 184.805C989.769 184.987 991.98 189.537 990.966 191.227C990.576 191.877 989.847 192.033 989.405 192.787C988.973 193.582 988.775 194.483 988.833 195.386C989.067 198.22 990.654 196.505 992.085 196.427C992.605 198.038 991.903 199.027 993.698 199.573L994.868 199.885C987.754 200.529 980.701 201.719 973.77 203.446C930.665 214.236 878.766 222.816 831.498 230.252C830.848 228.38 832.565 224.35 830.197 224.168C830.041 223.024 830.873 222.374 830.743 221.256C830.535 219.384 829.287 220.372 829.963 218.448C830.353 217.278 832.564 213.69 829.781 213.716C829.862 212.735 829.756 211.746 829.469 210.804C829.469 210.544 828.818 210.44 828.662 209.764C828.506 209.088 828.975 208.49 828.922 207.97C828.766 206.332 827.336 205.604 826.919 204.226C826.633 203.29 826.763 203.888 826.919 202.9C827.075 201.912 827.414 201.626 827.205 200.898C826.841 199.598 825.54 199.962 825.202 198.298C824.864 196.634 825.775 195.699 825.202 194.373C825.02 193.905 824.396 194.139 824.11 193.359C823.824 192.579 824.11 192.085 824.11 191.565C823.82 190.618 823.352 189.736 822.731 188.965C823.261 187.253 823.16 185.408 822.445 183.765C821.638 182.153 821.04 182.049 820.728 182.959C820.473 183.27 820.254 183.611 820.078 183.973C819.404 185.551 819.284 187.31 819.739 188.965C819.731 189.042 819.731 189.121 819.739 189.199C819.569 189.468 819.43 189.756 819.323 190.057C818.977 190.613 818.714 191.218 818.543 191.851C818.543 192.371 818.699 193.177 818.543 193.645C818.387 194.113 817.632 194.191 817.45 194.659C817.306 195.23 817.306 195.829 817.45 196.4C816.671 197.324 816.174 198.452 816.019 199.65C815.967 199.864 815.967 200.087 816.019 200.3C815.779 200.505 815.607 200.776 815.525 201.08C815.343 201.834 815.811 202.484 815.811 203.082C815.811 203.68 815.811 203.68 815.811 203.94C815.494 204.276 815.223 204.652 815.005 205.058C814.836 205.398 814.705 205.756 814.615 206.124C814.107 206.695 813.773 207.398 813.652 208.152C813.652 208.672 813.99 209.582 813.912 209.946C813.834 210.31 813.21 210.726 813.106 210.986C812.887 211.558 812.789 212.169 812.819 212.78C812.711 213.152 812.659 213.537 812.664 213.924C811.077 213.924 811.337 215.432 811.831 216.758C811.684 217.137 811.571 217.529 811.493 217.928C811.389 218.368 811.402 218.826 811.53 219.26C811.657 219.693 811.896 220.085 812.221 220.398C811.974 220.689 811.836 221.057 811.831 221.438C811.831 222.582 812.534 223.232 812.377 224.376C809.776 224.558 811.987 229.108 810.973 230.798C810.582 231.448 809.854 231.604 809.412 232.358C809.174 232.806 809.007 233.288 808.917 233.788C759.49 241.588 718.049 248.062 702.102 254.769C669.142 268.627 651.816 218.37 622.316 218.37C598.539 218.37 593.935 238.676 562.015 239.17C561.991 239.014 561.938 238.864 561.859 238.728C561.651 238.338 561.286 238.286 561.078 237.948C560.61 237.142 561.625 234.932 560.402 234.828C560.402 234.282 560.74 233.97 560.688 233.398C560.636 232.826 559.96 232.982 560.298 232.046C560.636 231.11 561.521 229.732 560.298 229.758C560.383 229.285 560.383 228.801 560.298 228.328C560.298 228.328 559.96 228.146 559.882 227.834C559.804 227.522 560.038 227.21 559.882 226.95C559.882 226.17 559.127 225.806 558.919 225.13C558.711 224.454 558.919 224.974 558.919 224.48C558.919 223.986 559.179 223.882 559.075 223.518C558.971 223.154 558.269 223.076 558.113 222.322C557.957 221.568 558.373 220.996 558.113 220.398C557.853 219.8 557.722 220.398 557.592 219.904C557.462 219.41 557.592 219.28 557.592 219.02C557.441 218.552 557.212 218.113 556.916 217.72C557.187 216.864 557.131 215.938 556.76 215.12C556.37 214.34 556.083 214.288 555.927 214.73L555.615 215.224C555.302 215.992 555.248 216.84 555.459 217.642V217.772C555.388 217.906 555.327 218.045 555.277 218.188C555.099 218.45 554.967 218.74 554.887 219.046C554.887 219.306 554.887 219.696 554.887 219.93C554.887 220.164 554.445 220.19 554.341 220.424C554.262 220.705 554.262 221.001 554.341 221.282C553.957 221.721 553.712 222.264 553.638 222.842C553.626 222.954 553.626 223.068 553.638 223.18C553.519 223.27 553.436 223.399 553.404 223.544C553.404 223.908 553.404 224.22 553.404 224.532C553.404 224.844 553.404 224.818 553.404 224.922C553.261 225.094 553.13 225.276 553.014 225.468C552.942 225.637 552.881 225.811 552.832 225.988C552.589 226.269 552.427 226.61 552.363 226.976C552.363 227.236 552.546 227.678 552.363 227.86C552.181 228.042 552.025 228.224 551.973 228.354C551.919 228.646 551.919 228.946 551.973 229.238C551.934 229.418 551.934 229.604 551.973 229.784C551.193 229.784 551.323 230.512 551.557 231.162C551.487 231.347 551.434 231.539 551.401 231.734C551.355 231.946 551.362 232.165 551.421 232.374C551.48 232.582 551.589 232.773 551.739 232.93C551.626 233.08 551.563 233.262 551.557 233.45C551.557 233.996 551.921 234.308 551.817 234.854C550.595 234.854 551.635 237.168 551.141 237.974C551.002 238.178 550.825 238.354 550.621 238.494C545.033 237.855 539.49 236.874 534.023 235.556C521.702 232.749 509.68 228.761 498.124 223.648C498.261 223.22 498.309 222.768 498.264 222.321C498.219 221.874 498.083 221.44 497.863 221.048C497.551 220.528 497.031 220.424 496.771 219.956C496.068 218.786 497.551 215.614 495.808 215.484C495.678 214.704 496.277 214.236 496.172 213.456C496.016 212.156 495.158 212.832 495.626 211.506C495.912 210.7 497.369 208.204 495.626 208.23C495.671 207.539 495.601 206.845 495.418 206.176C495.418 205.994 494.95 205.942 494.846 205.448C494.742 204.954 495.054 204.564 495.028 204.2C495.028 203.056 493.935 202.562 493.649 201.6C493.363 200.638 493.649 201.366 493.649 200.664C493.649 199.962 493.987 199.806 493.857 199.286C493.727 198.766 492.687 198.636 492.453 197.571C492.218 196.505 492.869 195.673 492.453 194.815C492.453 194.503 491.88 194.659 491.698 194.113C491.516 193.567 491.698 193.229 491.698 192.865C491.505 192.183 491.178 191.546 490.736 190.993C491.102 189.802 491.027 188.52 490.527 187.379C489.981 186.261 489.565 186.183 489.331 186.833C489.157 187.049 489.009 187.285 488.888 187.535C488.411 188.634 488.328 189.865 488.654 191.019V191.175C488.53 191.363 488.425 191.563 488.342 191.773C488.099 192.156 487.923 192.578 487.822 193.021C487.822 193.385 487.822 193.931 487.822 194.269C487.822 194.607 487.198 194.633 487.067 194.971C486.948 195.369 486.948 195.794 487.067 196.192C486.508 196.816 486.153 197.597 486.053 198.429C486.023 198.583 486.023 198.742 486.053 198.897C485.893 199.045 485.777 199.234 485.715 199.442C485.715 199.962 485.923 200.404 485.923 200.846C485.923 201.288 485.923 201.262 485.923 201.418C485.71 201.655 485.526 201.917 485.376 202.198C485.254 202.439 485.158 202.692 485.09 202.952C484.736 203.344 484.509 203.833 484.44 204.356C484.44 204.72 484.674 205.344 484.622 205.604C484.57 205.864 484.128 206.15 484.05 206.332C483.909 206.733 483.839 207.155 483.842 207.58C483.813 207.848 483.813 208.118 483.842 208.386C482.749 208.386 482.931 209.426 483.269 210.336C483.164 210.596 483.085 210.866 483.035 211.142C482.963 211.447 482.971 211.764 483.057 212.065C483.144 212.366 483.307 212.639 483.53 212.858C483.372 213.079 483.281 213.341 483.269 213.612C483.269 214.392 483.764 214.834 483.634 215.64C483.501 215.645 483.371 215.683 483.258 215.751C483.144 215.819 483.05 215.915 482.983 216.03L479.237 214.08C478.925 213.612 478.457 213.482 478.196 213.04C477.468 211.87 478.977 208.672 477.208 208.542C477.078 207.736 477.676 207.268 477.598 206.488C477.442 205.162 476.558 205.864 477.026 204.512C477.312 203.706 478.795 201.185 477.026 201.211C477.085 200.519 477.015 199.822 476.818 199.156C476.818 198.974 476.349 198.897 476.245 198.429C476.141 197.961 476.454 197.518 476.428 197.154C476.428 196.01 475.309 195.516 475.023 194.554C474.737 193.592 475.023 194.321 475.023 193.619C475.023 192.917 475.361 192.735 475.205 192.215C475.049 191.695 474.06 191.565 473.826 190.473C473.592 189.381 474.216 188.575 473.826 187.717C473.826 187.379 473.254 187.561 473.072 187.015C472.89 186.469 473.072 186.105 473.072 185.741C472.873 185.053 472.547 184.409 472.109 183.843C472.475 182.652 472.401 181.37 471.901 180.229C471.329 179.085 470.912 179.007 470.678 179.657C470.515 179.875 470.376 180.111 470.262 180.359C469.77 181.463 469.678 182.704 470.002 183.869V184.025C469.877 184.222 469.773 184.431 469.69 184.649C469.45 185.037 469.265 185.457 469.143 185.897C469.143 186.261 469.143 186.833 469.143 187.145C469.143 187.457 468.493 187.535 468.363 187.873C468.271 188.275 468.271 188.693 468.363 189.095C467.828 189.744 467.477 190.525 467.349 191.357C467.319 191.511 467.319 191.67 467.349 191.825C467.189 191.973 467.072 192.162 467.01 192.371C467.01 192.891 467.218 193.359 467.218 193.775C467.218 194.191 467.218 194.191 467.218 194.373C467.004 194.614 466.812 194.875 466.646 195.153C466.646 195.413 466.464 195.647 466.386 195.907C466.034 196.312 465.8 196.807 465.71 197.336C465.71 197.7 465.97 198.325 465.892 198.611C465.814 198.897 465.397 199.156 465.319 199.312C465.175 199.721 465.113 200.154 465.137 200.586C465.084 200.852 465.084 201.126 465.137 201.392C463.993 201.392 464.201 202.432 464.539 203.368C464.43 203.636 464.352 203.915 464.305 204.2C464.233 204.505 464.241 204.823 464.327 205.123C464.414 205.424 464.576 205.697 464.799 205.916C464.7 206.057 464.629 206.216 464.591 206.384C462.614 205.422 460.559 204.434 458.478 203.498C458.488 203.118 458.398 202.742 458.218 202.406C458.009 202.042 457.645 201.964 457.463 201.652C456.969 200.82 458.009 198.61 456.787 198.532C456.787 197.96 457.099 197.649 457.047 197.103C456.995 196.557 456.345 196.66 456.657 195.751C456.969 194.841 457.879 193.437 456.657 193.437C456.69 192.963 456.637 192.487 456.501 192.033C456.501 191.903 456.188 191.851 456.11 191.513C456.032 191.175 456.24 190.889 456.24 190.655C456.24 189.849 455.46 189.511 455.252 188.835C455.044 188.159 455.252 188.679 455.252 188.185C455.252 187.691 455.486 187.561 455.252 187.197C455.018 186.833 454.445 186.755 454.289 186.001C454.133 185.247 454.55 184.675 454.289 184.077C454.289 183.869 453.899 184.077 453.743 183.583C453.587 183.089 453.743 182.985 453.743 182.725C453.603 182.252 453.373 181.811 453.067 181.425C453.387 180.588 453.387 179.662 453.067 178.825C452.677 178.045 452.364 177.993 452.208 178.435C452.095 178.589 451.999 178.754 451.922 178.929C451.587 179.69 451.522 180.544 451.74 181.347C451.65 181.483 451.579 181.632 451.532 181.789C451.355 182.051 451.223 182.341 451.142 182.647C451.142 182.907 451.142 183.297 451.142 183.531C451.142 183.765 450.699 183.791 450.621 184.025C450.542 184.296 450.542 184.585 450.621 184.857C450.231 185.302 449.986 185.855 449.919 186.443C449.906 186.546 449.906 186.651 449.919 186.755C449.812 186.855 449.731 186.98 449.685 187.119C449.685 187.509 449.815 187.821 449.815 188.107C449.815 188.393 449.815 188.393 449.815 188.523C449.657 188.683 449.526 188.867 449.425 189.069C449.337 189.231 449.276 189.407 449.242 189.589C448.981 189.857 448.817 190.205 448.774 190.577C448.774 190.811 448.93 191.253 448.774 191.435C448.618 191.617 448.436 191.825 448.384 191.955C448.284 192.229 448.24 192.521 448.254 192.813C448.239 192.994 448.239 193.177 448.254 193.359C447.473 193.359 447.604 194.113 447.864 194.763C447.783 194.937 447.722 195.12 447.682 195.309C447.629 195.522 447.635 195.746 447.699 195.957C447.763 196.167 447.883 196.356 448.046 196.504C447.928 196.654 447.856 196.835 447.838 197.024C447.838 197.57 448.202 197.882 448.124 198.454C448.023 198.452 447.924 198.477 447.836 198.528C447.749 198.578 447.678 198.652 447.63 198.741C432.093 192.977 415.959 188.974 399.529 186.807C328.432 176.407 264.254 190.265 208.766 186.807C201.43 186.339 194.536 185.689 187.954 184.883C187.997 184.444 188.075 184.009 188.188 183.583C189.177 183.583 190.295 184.831 190.451 182.829C190.522 182.188 190.386 181.541 190.061 180.983C189.775 180.437 189.255 180.333 188.969 179.891C188.266 178.695 189.749 175.497 187.98 175.367C187.98 174.561 188.474 174.119 188.37 173.313C188.214 172.013 187.356 172.689 187.798 171.363C188.084 170.531 189.593 168.009 187.798 168.035C187.842 167.344 187.771 166.65 187.59 165.981C187.59 165.799 187.122 165.747 187.018 165.253C186.914 164.759 187.226 164.343 187.174 164.005C187.174 162.835 186.081 162.341 185.795 161.405C185.509 160.469 185.795 161.171 185.795 160.469C185.795 159.767 186.133 159.585 186.003 159.065C185.743 158.129 184.832 158.389 184.598 157.323C184.364 156.257 184.988 155.399 184.598 154.541C184.468 154.229 184.026 154.385 183.818 153.839C183.61 153.293 183.818 152.955 183.818 152.591C183.603 151.91 183.278 151.269 182.855 150.693C183.22 149.492 183.136 148.199 182.621 147.053C182.075 145.909 181.659 145.857 181.425 146.507C181.251 146.724 181.103 146.96 180.982 147.209C180.49 148.314 180.398 149.555 180.722 150.719C180.712 150.771 180.712 150.824 180.722 150.875C180.606 151.064 180.51 151.264 180.436 151.473C180.179 151.853 179.994 152.275 179.89 152.721C179.89 153.111 179.89 153.657 179.89 153.995C179.89 154.333 179.265 154.385 179.135 154.697C179.017 155.096 179.017 155.52 179.135 155.919C178.574 156.562 178.221 157.36 178.121 158.207C178.095 158.362 178.095 158.52 178.121 158.675C177.967 158.814 177.859 158.995 177.808 159.195C177.652 159.741 177.991 160.183 177.991 160.625C177.991 161.067 177.991 161.041 177.991 161.223C177.771 161.452 177.579 161.705 177.418 161.977C177.297 162.224 177.209 162.487 177.158 162.757C176.794 163.145 176.558 163.635 176.482 164.161C176.482 164.525 176.716 165.175 176.664 165.435C176.612 165.695 176.144 165.981 176.092 166.163C175.94 166.561 175.87 166.985 175.883 167.411C175.855 167.679 175.855 167.949 175.883 168.217C174.765 168.217 174.947 169.283 175.311 170.219C175.19 170.475 175.102 170.746 175.051 171.025C174.98 171.335 174.991 171.659 175.082 171.964C175.173 172.27 175.342 172.546 175.571 172.767C175.397 172.971 175.296 173.227 175.285 173.495C175.285 174.301 175.805 174.743 175.675 175.549C173.906 175.679 175.389 178.877 174.687 180.047C174.427 180.515 173.906 180.619 173.594 181.165C173.338 181.634 173.212 182.164 173.23 182.699C160.144 180.505 147.265 177.218 134.729 172.871C134.739 172.802 134.739 172.732 134.729 172.663C134.729 172.507 134.729 172.091 134.729 171.935C134.729 171.779 135.223 171.935 135.405 171.701C135.587 171.467 136.29 171.077 136.029 170.271C136.623 170.206 137.208 170.075 137.772 169.881C139.047 169.465 138.527 168.815 138.917 167.697C139.905 167.697 141.024 168.945 141.18 166.943C141.253 166.302 141.116 165.654 140.79 165.097C140.504 164.551 139.984 164.447 139.697 163.979C138.995 162.809 140.478 159.611 138.709 159.481C138.709 158.675 139.203 158.233 139.099 157.427C138.943 156.127 138.085 156.803 138.527 155.477C138.813 154.645 140.322 152.123 138.527 152.149C138.572 151.458 138.502 150.764 138.319 150.095C138.319 149.913 137.85 149.835 137.746 149.367C137.642 148.899 137.955 148.457 137.902 148.093C137.902 146.949 136.81 146.455 136.524 145.493C136.238 144.531 136.524 145.259 136.524 144.531C136.524 143.803 136.862 143.673 136.732 143.128C136.602 142.582 135.561 142.478 135.327 141.386C135.093 140.294 135.717 139.488 135.327 138.63C135.197 138.318 134.755 138.474 134.547 137.928C134.338 137.382 134.547 137.044 134.547 136.654C134.326 135.983 134.001 135.351 133.584 134.782C133.948 133.58 133.865 132.287 133.35 131.142C132.804 129.998 132.387 129.92 132.153 130.57C131.981 130.796 131.833 131.04 131.711 131.298C131.225 132.394 131.133 133.625 131.451 134.782V134.938C131.334 135.135 131.238 135.344 131.165 135.562C130.908 135.941 130.723 136.364 130.618 136.81C130.618 137.174 130.618 137.746 130.618 138.084C130.618 138.422 129.994 138.448 129.864 138.786C129.746 139.184 129.746 139.609 129.864 140.008C129.308 140.644 128.954 141.431 128.849 142.269C128.821 142.424 128.821 142.583 128.849 142.737C128.695 142.886 128.587 143.075 128.537 143.283C128.381 143.803 128.719 144.271 128.719 144.687C128.719 145.103 128.719 145.13 128.719 145.286C128.505 145.527 128.313 145.788 128.147 146.065C128.03 146.305 127.942 146.558 127.887 146.819C127.518 147.214 127.282 147.714 127.21 148.249C127.21 148.613 127.445 149.237 127.393 149.523C127.341 149.809 126.872 150.069 126.82 150.251C126.667 150.649 126.596 151.073 126.612 151.499C126.584 151.767 126.584 152.037 126.612 152.305C125.494 152.305 125.676 153.345 126.04 154.281C125.922 154.548 125.835 154.827 125.78 155.113C125.705 155.42 125.715 155.74 125.806 156.042C125.898 156.344 126.068 156.616 126.3 156.829C126.132 157.046 126.032 157.309 126.014 157.583C126.014 158.363 126.534 158.831 126.404 159.637C124.635 159.637 126.118 162.965 125.415 164.135C125.155 164.603 124.635 164.707 124.323 165.227C124.023 165.803 123.888 166.451 123.933 167.099C124.089 169.101 125.207 167.905 126.196 167.827C126.586 168.945 126.066 169.621 127.341 170.037C127.905 170.231 128.49 170.362 129.084 170.427C129.071 170.531 129.071 170.635 129.084 170.739C117.184 166.136 105.711 160.499 94.7967 153.891C76.3264 142.816 28.1478 156.881 1.74316 165.955V450.182L1397.26 412.535C1397.26 412.535 1386.83 312.02 1274.11 289.479Z" fill="url(#paint12_linear_160_6660)"/>
<path d="M1289.71 260.983C1175.25 219.384 1089.4 164.239 1011.36 213.872C933.318 263.505 868.282 300.113 764.224 310.408C660.167 320.704 674.475 252.221 625.048 268.029C575.62 283.837 571.718 367.607 480.668 354.555C389.617 341.504 324.581 259.059 269.951 240.47C224.426 224.87 68.704 318.468 0 349.876V898H1440V288.231C1410.45 289.531 1359.2 286.333 1289.71 260.983Z" fill="#04373B"/>
<path d="M1398.4 235.712C1396.58 233.112 1393.49 232.618 1391.85 230.512C1387.63 224.766 1396.53 209.244 1386.02 208.646C1385.29 204.746 1388.86 202.536 1388.31 198.663C1387.4 192.319 1382.2 195.647 1384.95 189.173C1386.65 185.169 1395.54 172.975 1384.2 173.079C1384.51 169.693 1384.09 166.28 1382.98 163.069C1382.53 162.211 1380.19 161.899 1379.54 159.559C1379.21 158.259 1380.82 155.191 1380.61 153.449C1379.96 147.885 1374 145.416 1372.29 140.736C1371.09 137.512 1371.63 139.618 1371.71 136.186C1371.71 134.132 1373.74 131.896 1372.88 129.374C1371.37 124.928 1365.96 126.202 1364.61 120.924C1363.54 116.816 1366.95 111.642 1364.97 107.508C1364.22 105.922 1361.59 106.728 1360.4 104.05C1359.69 102.438 1360.79 99.7603 1360.4 97.9404C1359.13 94.5248 1357.18 91.4083 1354.65 88.7886C1355.71 85.9311 1356.15 82.8777 1355.93 79.8359C1355.71 76.7942 1354.84 73.8355 1353.37 71.1609C1350.02 65.649 1347.52 65.311 1346.17 68.561C1345.16 69.589 1344.28 70.7424 1343.57 71.9928C1342.15 74.5604 1341.29 77.3939 1341.04 80.3126C1340.78 83.2312 1341.14 86.1711 1342.08 88.9446L1341.54 89.7506C1340.88 90.6926 1340.3 91.6834 1339.79 92.7145C1338.34 94.5243 1337.24 96.5871 1336.54 98.7984C1336.1 100.592 1337.19 103.27 1336.54 104.908C1335.34 107.508 1332.74 106.754 1331.96 108.366C1331.24 110.262 1331.14 112.338 1331.68 114.294C1328.76 117.83 1325.67 121.262 1325.62 125.292C1325.6 126.077 1325.75 126.856 1326.06 127.58C1325.13 128.208 1324.42 129.12 1324.05 130.18C1323.2 132.78 1325.2 134.938 1325.25 137.018C1325.25 139.618 1325.62 139.072 1325.25 139.904C1323.99 141.037 1322.86 142.3 1321.87 143.674C1321.22 144.84 1320.69 146.068 1320.28 147.339C1318.22 149.135 1316.82 151.57 1316.3 154.255C1316.09 156.023 1317.71 159.091 1317.34 160.391C1316.72 162.731 1314.38 162.991 1313.91 163.901C1313.07 165.835 1312.68 167.932 1312.76 170.037C1312.36 171.289 1312.15 172.596 1312.14 173.911C1305.45 174.119 1306.55 179.111 1308.65 183.557C1308.02 184.808 1307.52 186.124 1307.17 187.483C1306.1 191.955 1308.29 193.827 1310.21 195.907C1309.27 196.877 1308.7 198.147 1308.6 199.495C1308.06 203.342 1311.62 205.552 1310.89 209.452C1300.49 210.076 1309.28 225.598 1305.06 231.318C1303.4 233.58 1300.33 234.074 1298.48 236.674C1296.69 239.314 1295.86 242.491 1296.14 245.67C1297.16 255.367 1303.79 249.544 1309.72 249.258C1311.93 254.692 1308.97 257.889 1316.43 259.917C1319.84 260.826 1323.32 261.435 1326.84 261.737C1325.33 265.741 1328.42 266.937 1330.48 268.757C1331.65 269.771 1333.45 268.757 1334.51 269.927C1335.58 271.097 1333.99 272.527 1334.67 273.437C1335.76 275.085 1337.15 276.521 1338.75 277.675C1339.59 278.195 1341.35 277.051 1342.29 277.675C1342.89 278.169 1343.42 278.747 1343.85 279.391V303.779H1352.15V280.119C1352.69 278.89 1353.5 277.797 1354.52 276.921C1355.35 276.219 1357.12 277.389 1358.08 276.921C1359.69 275.778 1361.07 274.34 1362.14 272.683C1362.82 271.903 1361.57 269.901 1362.3 269.173C1363.02 268.445 1365.18 269.017 1366.35 268.003C1368.41 266.261 1371.56 265.013 1370 261.009C1373.51 260.702 1376.99 260.084 1380.4 259.163C1387.89 257.135 1384.9 253.963 1387.14 248.53C1393.07 248.79 1399.7 254.64 1400.72 244.916C1401.06 241.671 1400.24 238.409 1398.4 235.712Z" fill="#04373B"/>
<path d="M1241.61 197.623C1240.31 195.309 1238.08 194.867 1236.91 192.891C1233.86 187.847 1240.26 174.119 1232.72 173.573C1232.17 170.141 1234.75 168.191 1234.36 164.785C1233.68 159.169 1229.96 162.185 1231.94 156.387C1233.16 152.851 1239.56 142.088 1231.39 142.166C1231.61 139.2 1231.32 136.219 1230.53 133.352C1230.19 132.598 1228.5 132.312 1227.93 130.258C1227.67 129.114 1228.84 126.384 1228.69 124.85C1228.22 119.936 1223.92 117.752 1222.68 113.618C1221.84 110.758 1222.23 112.63 1222.29 109.588C1222.29 107.768 1223.74 105.818 1223.14 103.582C1222.05 99.6563 1218.15 100.774 1217.16 96.1203C1216.41 92.5064 1218.85 87.9305 1217.45 84.2905C1216.9 82.8606 1215 83.5886 1214.14 81.2226C1213.62 79.7926 1214.43 77.4267 1214.14 75.8407C1213.29 72.9031 1211.9 70.1514 1210.03 67.7289C1211.58 62.5841 1211.26 57.0596 1209.12 52.1291C1206.68 47.2672 1204.91 46.9292 1203.92 49.7632C1203.18 50.699 1202.55 51.7203 1202.05 52.8052C1199.98 57.5266 1199.6 62.8146 1200.98 67.7808L1200.59 68.4829C1199.29 71.0978 1198.1 73.7602 1197 76.4647C1196.69 78.0506 1197.47 80.4166 1197 81.8466C1196.14 84.2125 1194.27 83.5105 1193.72 84.9145C1193.19 86.5975 1193.11 88.3905 1193.49 90.1144C1191.41 93.2344 1189.17 96.2764 1189.12 99.8383C1189.12 100.528 1189.24 101.212 1189.46 101.866C1188.75 102.47 1188.25 103.279 1188.02 104.18C1187.4 106.416 1188.86 108.392 1188.88 110.212C1188.91 112.032 1189.12 112.032 1188.88 112.812C1187.97 113.842 1187.16 114.956 1186.46 116.14C1185.99 117.189 1185.61 118.276 1185.32 119.39C1183.77 121.09 1182.77 123.221 1182.46 125.5C1182.3 127.06 1183.47 129.764 1183.21 130.908C1182.74 132.962 1181.05 133.248 1180.74 134.002C1180.12 135.734 1179.83 137.57 1179.91 139.41C1179.61 140.529 1179.46 141.683 1179.47 142.842C1174.65 143.024 1175.43 147.365 1176.86 151.369C1176.39 152.49 1176.03 153.657 1175.8 154.853C1175.49 156.172 1175.53 157.548 1175.91 158.847C1176.29 160.147 1177.01 161.324 1177.98 162.263C1177.27 163.173 1176.86 164.282 1176.81 165.435C1176.42 168.841 1178.97 170.791 1178.45 174.249C1170.91 174.795 1177.28 188.497 1174.26 193.567C1173.07 195.543 1170.86 195.959 1169.53 198.273C1168.22 200.699 1167.63 203.452 1167.84 206.202C1168.59 214.782 1173.35 209.634 1177.62 209.374C1179.21 214.184 1177.07 217.018 1182.46 218.812C1184.9 219.615 1187.42 220.155 1189.98 220.424C1188.88 223.96 1191.12 225.052 1192.58 226.612C1193.41 227.496 1194.71 226.612 1195.49 227.626C1196.27 228.64 1195.1 230.044 1195.49 230.746C1196.22 232.162 1197.21 233.431 1198.4 234.49C1199.03 234.958 1200.38 233.918 1201.01 234.49C1201.44 234.955 1201.81 235.47 1202.12 236.024V257.577H1208.08V236.778C1208.44 235.718 1209.02 234.75 1209.8 233.944C1210.4 233.32 1211.75 234.36 1212.4 233.944C1213.59 232.879 1214.59 231.612 1215.34 230.2C1215.81 229.498 1214.9 227.73 1215.34 227.08C1215.78 226.43 1217.4 226.95 1218.25 226.066C1219.71 224.506 1221.95 223.466 1220.86 219.878C1223.42 219.613 1225.95 219.064 1228.4 218.24C1233.78 216.446 1231.63 213.638 1233.21 208.828C1237.5 209.088 1242.26 214.236 1242.99 205.656C1243.33 202.901 1242.85 200.108 1241.61 197.623Z" fill="#04373B"/>
<path d="M970.31 256.199C968.983 253.911 966.772 253.599 965.576 251.467C962.558 246.424 968.957 232.722 961.387 232.15C960.867 228.718 963.442 226.768 963.026 223.362C962.376 217.746 958.63 220.762 960.607 214.964C961.856 211.428 968.255 200.69 960.086 200.742C960.314 197.775 960.014 194.792 959.202 191.929C958.89 191.175 957.199 190.889 956.601 188.835C956.366 187.691 957.511 184.961 957.381 183.427C956.887 178.513 952.62 176.329 951.372 172.195C950.513 169.335 950.929 171.207 950.981 168.191C950.981 166.371 952.438 164.395 951.814 162.159C950.747 158.259 946.845 159.351 945.857 154.723C945.076 151.083 947.548 146.507 946.143 142.868C945.57 141.464 943.697 142.165 942.839 139.799C942.319 138.369 943.125 136.004 942.839 134.418C941.986 131.485 940.582 128.74 938.703 126.332C940.275 121.19 939.952 115.656 937.792 110.732C935.373 105.844 933.578 105.532 932.589 108.34C931.846 109.276 931.217 110.297 930.716 111.382C928.651 116.103 928.274 121.392 929.65 126.358L929.259 127.06C928.767 127.892 928.341 128.761 927.985 129.66C926.938 131.323 926.157 133.138 925.669 135.042C925.331 136.628 926.138 138.994 925.669 140.424C924.811 142.79 922.912 142.088 922.366 143.491C921.844 145.177 921.772 146.97 922.158 148.691C920.076 151.811 917.839 154.853 917.787 158.415C917.792 159.105 917.906 159.789 918.125 160.443C917.419 161.047 916.92 161.856 916.695 162.757C916.07 164.993 917.501 166.969 917.527 168.789C917.553 170.609 917.787 170.609 917.527 171.389C916.6 172.406 915.789 173.522 915.108 174.717C914.612 175.756 914.228 176.846 913.963 177.967C912.419 179.674 911.414 181.8 911.075 184.077C911.075 185.637 912.09 188.341 911.856 189.485C911.388 191.539 909.697 191.825 909.255 192.579C908.635 194.312 908.344 196.146 908.396 197.986C908.122 199.11 907.973 200.262 907.954 201.418C903.167 201.6 903.948 205.942 905.352 209.946C904.886 211.071 904.529 212.237 904.286 213.43C903.975 214.749 904.013 216.125 904.396 217.424C904.779 218.724 905.494 219.901 906.471 220.84C905.786 221.762 905.388 222.865 905.326 224.012C904.91 227.418 907.486 229.368 906.965 232.826C899.395 233.372 905.795 247.074 902.751 252.143C901.58 254.119 899.343 254.561 898.042 256.849C896.728 259.285 896.141 262.046 896.351 264.805C897.08 273.359 901.84 268.211 906.133 267.977C907.719 272.787 905.587 275.595 910.946 277.389C913.396 278.192 915.925 278.732 918.489 279.001C917.397 282.537 919.634 283.629 921.091 285.189C921.949 286.073 923.224 285.189 924.004 286.203C924.785 287.217 923.64 288.621 924.004 289.323C924.738 290.739 925.725 292.008 926.918 293.067C927.542 293.535 928.895 292.521 929.52 293.067C929.965 293.511 930.343 294.019 930.638 294.575V316.128H936.622V295.329C936.977 294.274 937.553 293.308 938.312 292.495C938.911 291.871 940.263 292.911 940.914 292.495C942.107 291.436 943.094 290.167 943.827 288.751C944.322 288.049 943.411 286.281 943.827 285.631C944.244 284.981 945.909 285.501 946.767 284.617C948.224 283.057 950.461 282.017 949.368 278.429C951.933 278.158 954.462 277.617 956.913 276.817C962.272 275.023 960.138 272.189 961.725 267.405C966.018 267.639 970.778 272.787 971.507 264.207C971.882 261.479 971.467 258.699 970.31 256.199Z" fill="#04373B"/>
<path d="M420.002 344.988C418.675 342.7 416.464 342.258 415.268 340.282C412.25 335.212 418.649 321.51 411.079 320.964C410.559 317.532 413.134 315.582 412.718 312.176C412.068 306.56 408.322 309.576 410.299 303.778C411.547 300.242 417.947 289.479 409.779 289.557C410.006 286.581 409.706 283.589 408.894 280.717C408.582 279.963 406.891 279.703 406.292 277.623C406.058 276.479 407.203 273.775 407.073 272.241C406.579 267.327 402.313 265.143 401.064 261.009C400.205 258.149 400.622 260.021 400.674 256.979C400.674 255.159 402.13 253.209 401.506 250.973C400.439 247.047 396.537 248.165 395.549 243.511C394.768 239.898 397.24 235.322 395.835 231.682C395.263 230.252 393.389 230.954 392.531 228.614C392.011 227.184 392.817 224.818 392.531 223.232C391.678 220.291 390.275 217.538 388.395 215.12C389.964 209.978 389.641 204.445 387.484 199.52C385.065 194.658 383.27 194.32 382.281 197.154C381.543 198.084 380.915 199.096 380.408 200.17C378.343 204.901 377.966 210.197 379.342 215.172L378.952 215.848C378.465 216.683 378.039 217.552 377.677 218.448C376.63 220.111 375.849 221.927 375.362 223.83C375.023 225.416 375.83 227.782 375.362 229.212C374.503 231.578 372.604 230.85 372.058 232.28C371.536 233.965 371.464 235.758 371.849 237.48C369.768 240.599 367.531 243.641 367.479 247.203C367.486 247.893 367.6 248.577 367.817 249.231C367.106 249.831 366.605 250.642 366.386 251.545C365.762 253.781 367.193 255.731 367.219 257.551C367.219 259.787 367.479 259.371 367.219 260.151C366.28 261.158 365.468 262.276 364.8 263.479C364.303 264.519 363.92 265.608 363.655 266.729C362.106 268.433 361.1 270.561 360.767 272.839C360.767 274.373 361.782 277.103 361.548 278.221C361.08 280.301 359.389 280.587 358.946 281.341C358.323 283.074 358.032 284.908 358.088 286.749C357.814 287.873 357.665 289.024 357.646 290.181C352.859 290.363 353.639 294.679 355.044 298.709C354.574 299.832 354.217 300.999 353.978 302.192C353.667 303.511 353.705 304.887 354.088 306.187C354.471 307.486 355.186 308.663 356.163 309.602C355.47 310.52 355.071 311.626 355.018 312.774C354.602 316.18 357.177 318.13 356.657 321.562C349.087 322.108 355.486 335.836 352.443 340.88C351.272 342.856 349.035 343.298 347.734 345.612C346.444 348 345.858 350.704 346.043 353.411C346.772 361.991 351.532 356.843 355.825 356.583C357.412 361.393 355.278 364.201 360.637 365.995C363.084 366.81 365.615 367.351 368.182 367.607C367.089 371.169 369.326 372.261 370.783 373.821C371.642 374.705 372.916 373.821 373.697 374.835C374.477 375.849 373.332 377.253 373.697 377.955C374.585 379.468 375.771 380.786 377.182 381.829C377.807 382.323 379.16 381.283 379.784 381.829C380.225 382.287 380.601 382.803 380.903 383.363V404.891H386.886V384.091C387.248 383.048 387.824 382.091 388.577 381.283C389.175 380.659 390.528 381.673 391.178 381.283C392.365 380.228 393.352 378.969 394.092 377.565C394.586 376.837 393.676 374.965 394.092 374.445C394.508 373.925 396.173 374.445 397.031 373.405C398.488 371.871 400.726 370.805 399.633 367.217C402.199 366.959 404.729 366.418 407.177 365.605C412.536 363.811 410.403 361.003 411.99 356.193C416.282 356.453 421.043 361.601 421.771 353.021C421.972 350.229 421.358 347.438 420.002 344.988Z" fill="#04373B"/>
<path d="M765.005 316.674C764.407 315.634 763.418 315.426 762.872 314.516C761.493 312.228 764.407 306.014 760.973 305.754C760.713 304.194 761.884 303.31 761.701 301.75C761.415 299.15 759.724 300.554 760.609 297.954C761.181 296.342 764.069 291.454 760.375 291.506C760.484 290.151 760.352 288.786 759.984 287.477C759.828 287.139 759.048 287.008 758.84 286.072C758.84 285.552 759.256 284.33 759.204 283.628C758.97 281.393 757.045 280.405 756.602 278.429C756.212 277.129 756.394 277.961 756.42 276.609C756.42 275.777 757.097 274.893 756.811 273.879C756.316 272.085 754.547 272.605 754.209 270.499C753.845 268.835 754.964 266.755 754.339 265.117C754.079 264.467 753.221 264.779 752.83 263.713C752.596 263.063 752.83 261.997 752.83 261.269C752.445 259.939 751.809 258.695 750.958 257.603C751.674 255.272 751.526 252.762 750.541 250.531C749.449 248.321 748.642 248.191 748.2 249.439C747.862 249.865 747.575 250.327 747.341 250.817C746.414 252.967 746.24 255.367 746.847 257.629L746.691 257.941C746.474 258.326 746.282 258.726 746.119 259.137C745.634 259.88 745.274 260.697 745.052 261.555C744.896 262.283 745.26 263.375 745.052 264.155C744.662 265.221 743.803 264.883 743.569 265.533C743.36 266.308 743.36 267.124 743.569 267.899C742.489 269.145 741.801 270.683 741.592 272.319C741.54 272.629 741.54 272.945 741.592 273.255C741.283 273.534 741.057 273.894 740.942 274.295C740.656 275.309 741.332 276.193 741.332 276.895C741.332 277.597 741.332 277.727 741.332 278.065C740.906 278.519 740.539 279.026 740.24 279.573C740.009 280.045 739.834 280.542 739.719 281.055C739.01 281.82 738.548 282.78 738.392 283.81C738.392 284.512 738.861 285.76 738.757 286.28C738.548 287.216 737.768 287.346 737.638 287.684C737.355 288.467 737.223 289.296 737.248 290.128C737.123 290.639 737.053 291.162 737.04 291.688C734.854 291.688 735.219 293.742 735.921 295.562C735.703 296.073 735.537 296.604 735.427 297.148C735.292 297.745 735.311 298.367 735.484 298.954C735.658 299.541 735.978 300.074 736.415 300.502C736.098 300.924 735.917 301.431 735.895 301.958C735.713 303.492 736.884 304.402 736.624 305.936C733.216 306.196 736.103 312.41 734.724 314.724C734.204 315.634 733.19 315.816 732.591 316.856C731.989 317.961 731.718 319.215 731.811 320.47C732.149 324.37 734.412 322.03 736.259 321.9C736.988 324.084 735.999 325.384 738.444 326.19C739.561 326.551 740.711 326.796 741.878 326.918C741.384 328.53 742.399 329.024 743.049 329.726C743.699 330.428 744.038 329.726 744.376 330.194C744.714 330.662 744.22 331.286 744.376 331.598C744.714 332.243 745.163 332.823 745.703 333.314C745.989 333.522 746.587 333.054 746.873 333.314C747.069 333.515 747.235 333.742 747.368 333.99V343.791H749.969V334.302C750.127 333.82 750.384 333.378 750.723 333.002C751.009 332.742 751.608 333.184 751.894 333.002C752.433 332.521 752.882 331.949 753.221 331.312C753.455 331 753.039 330.194 753.221 329.908C753.403 329.622 754.157 329.908 754.548 329.44C754.938 328.972 756.238 328.218 755.718 326.632C756.886 326.501 758.037 326.248 759.152 325.878C761.597 325.072 760.609 323.798 761.337 321.614C763.288 321.614 765.447 324.058 765.786 320.184C765.861 318.964 765.59 317.747 765.005 316.674Z" fill="#04373B"/>
<path d="M1129.34 188.913C1128.48 187.613 1127.05 187.379 1126.29 186.313C1124.34 183.479 1128.45 175.913 1123.69 175.471C1123.35 173.547 1125.02 172.429 1124.73 170.531C1124.32 167.385 1121.9 169.023 1123.17 165.825C1123.98 163.823 1128.11 157.791 1122.83 157.817C1122.98 156.149 1122.79 154.468 1122.26 152.877C1122.08 152.435 1120.96 152.279 1120.67 151.135C1120.52 150.485 1121.27 148.977 1121.17 148.093C1120.86 145.337 1118.1 144.116 1117.29 141.802C1116.75 140.19 1117.01 141.23 1117.03 139.54C1117.03 138.5 1117.99 137.408 1117.58 136.16C1116.88 133.95 1114.35 134.574 1113.73 131.974C1113.23 129.92 1114.82 127.346 1113.91 125.318C1113.55 124.512 1112.35 124.928 1111.78 123.602C1111.44 122.796 1111.96 121.47 1111.78 120.56C1111.22 118.894 1110.33 117.357 1109.18 116.036C1109.66 114.609 1109.86 113.099 1109.76 111.595C1109.66 110.09 1109.26 108.621 1108.58 107.274C1107.02 104.544 1105.98 104.362 1105.22 105.922C1104.75 106.449 1104.34 107.024 1104 107.638C1102.68 110.25 1102.44 113.274 1103.32 116.062L1103.06 116.452C1102.75 116.912 1102.48 117.399 1102.26 117.908C1101.58 118.817 1101.07 119.838 1100.75 120.924C1100.54 121.834 1101.06 123.16 1100.75 123.966C1100.17 125.292 1098.98 124.876 1098.61 125.682C1098.31 126.638 1098.31 127.664 1098.61 128.62C1097.12 130.095 1096.12 132.006 1095.78 134.08C1095.78 134.47 1095.85 134.857 1095.99 135.224C1095.55 135.552 1095.24 136.006 1095.08 136.524C1094.66 137.772 1095.6 138.864 1095.62 139.904C1095.65 140.944 1095.78 140.918 1095.62 141.334C1095.03 141.89 1094.5 142.519 1094.06 143.205C1093.74 143.783 1093.49 144.393 1093.31 145.025C1092.34 145.944 1091.69 147.146 1091.46 148.457C1091.46 149.341 1092.11 150.849 1091.95 151.499C1091.67 152.643 1090.58 152.799 1090.37 153.241C1089.97 154.203 1089.78 155.242 1089.82 156.283C1089.63 156.906 1089.53 157.555 1089.53 158.207C1086.41 158.207 1086.93 160.807 1087.9 162.991C1087.61 163.619 1087.39 164.272 1087.22 164.941C1087.03 165.7 1087.07 166.496 1087.32 167.237C1087.56 167.978 1088.02 168.633 1088.62 169.127C1088.19 169.617 1087.93 170.24 1087.9 170.895C1087.64 172.819 1089.3 173.911 1088.94 175.835C1084.07 176.147 1088.18 183.843 1086.33 186.677C1085.58 187.795 1084.15 188.055 1083.29 189.277C1082.45 190.609 1082.07 192.179 1082.2 193.749C1082.67 198.558 1085.76 195.673 1088.52 195.517C1089.53 198.117 1088.16 199.807 1091.64 200.717C1093.23 201.157 1094.86 201.461 1096.51 201.626C1095.8 203.602 1097.24 204.226 1098.2 205.084C1098.74 205.604 1099.58 205.084 1100.07 205.656C1100.56 206.228 1099.84 207.008 1100.07 207.424C1100.56 208.225 1101.2 208.929 1101.94 209.504C1102.33 209.764 1103.22 209.192 1103.61 209.504C1103.89 209.759 1104.13 210.047 1104.34 210.362V222.452H1108.19V210.726C1108.42 210.119 1108.8 209.576 1109.28 209.14C1109.67 208.776 1110.55 209.348 1110.94 209.14C1111.69 208.566 1112.32 207.861 1112.82 207.06C1113.13 206.644 1112.56 205.656 1112.82 205.292C1113.08 204.928 1114.14 205.292 1114.72 204.72C1115.29 204.148 1117.08 203.238 1116.38 201.262C1118.03 201.097 1119.65 200.793 1121.25 200.353C1124.73 199.339 1123.35 197.753 1124.37 195.153C1127.15 195.309 1130.22 198.195 1130.69 193.385C1130.76 191.783 1130.29 190.205 1129.34 188.913Z" fill="#04373B"/>
<path d="M127.965 307.418C125.832 303.674 122.216 302.972 120.161 299.618C115.244 291.377 125.65 269.095 113.345 268.185C112.486 262.595 116.675 259.423 115.946 253.885C114.88 244.759 108.792 249.543 112.018 240.235C113.995 234.49 124.427 216.992 111.16 217.122C111.16 211.766 111.394 206.722 109.729 202.744C109.209 201.522 106.451 201.054 105.697 197.726C105.306 195.854 107.179 191.434 106.945 188.938C106.165 180.931 99.141 177.395 97.1899 170.739C95.8111 166.111 96.4615 169.127 96.5395 164.213C96.5395 161.249 98.9329 158.077 97.9184 154.437C96.1494 148.067 89.8278 149.861 88.2149 142.295C86.9662 136.419 90.9725 128.958 88.6572 123.03C87.7728 120.742 84.7031 121.886 83.2983 118.064C82.4658 115.75 83.7665 111.876 83.2983 109.302C81.9228 104.52 79.6446 100.046 76.5865 96.1201C79.1187 87.7709 78.593 78.7935 75.1037 70.7966C71.1755 62.9967 68.2619 62.3987 66.6751 66.9227C65.4667 68.4469 64.4368 70.1043 63.6054 71.8625C60.266 79.5488 59.66 88.1459 61.8883 96.2241L61.264 97.3681C60.4792 98.7302 59.7925 100.146 59.2089 101.606C57.4858 104.307 56.2037 107.264 55.4108 110.368C54.8905 112.968 56.1652 116.816 55.4108 119.13C54.006 122.952 50.9363 121.73 50.0518 124.096C49.1975 126.85 49.072 129.78 49.6876 132.597C46.3057 137.797 42.6898 142.607 42.6118 148.405C42.5963 149.527 42.7723 150.644 43.1321 151.707C41.9872 152.697 41.1706 154.012 40.7907 155.477C39.8022 159.143 42.1434 162.315 42.1954 165.279C42.1954 168.867 42.6117 168.217 42.1954 169.439C40.6996 171.108 39.383 172.929 38.2672 174.873C37.4705 176.539 36.8431 178.281 36.3943 180.073C33.8924 182.852 32.264 186.306 31.7117 190.004C31.4776 192.604 33.3766 196.946 32.9604 198.818C32.232 202.146 29.4745 202.614 28.9542 203.836C27.9383 206.66 27.4703 209.651 27.5754 212.65C27.1033 214.467 26.8673 216.337 26.8731 218.214C19.0688 218.526 20.3174 225.572 22.7888 232.072C22.0369 233.902 21.4619 235.8 21.0718 237.74C19.7971 244.135 22.3725 246.839 24.6097 249.829C23.4765 251.337 22.8157 253.146 22.7107 255.029C22.0863 260.567 26.2486 263.739 25.3121 269.355C13.0333 270.213 23.4131 292.521 18.4964 300.762C16.5713 303.986 12.9553 304.688 10.8221 308.406C8.67225 312.385 7.7149 316.898 8.06458 321.406C9.26124 335.342 17.0135 326.97 23.9593 326.606C26.5608 334.406 23.0748 339.008 31.7636 341.92C35.7435 343.22 39.8511 344.092 44.0165 344.52C42.2475 350.266 45.8895 352.085 48.2568 354.581C49.6356 356.063 51.7428 354.737 53.0175 356.271C53.876 357.311 52.3932 360.171 53.1736 361.315C54.3927 363.606 56.004 365.665 57.9343 367.399C58.9488 368.179 61.134 366.489 62.0965 367.399C62.8133 368.126 63.4261 368.949 63.9175 369.843V404.89H73.6209V371.013C74.208 369.305 75.1575 367.744 76.4044 366.437C77.3669 365.397 79.5781 367.087 80.5667 366.307C82.5042 364.58 84.1166 362.519 85.3273 360.223C86.1078 359.079 84.625 356.219 85.5094 355.179C86.7841 353.645 88.8653 354.971 90.2441 353.489C92.6374 350.889 96.2794 349.199 94.5105 343.428C98.6677 343.003 102.767 342.131 106.737 340.828C115.504 337.916 111.94 333.34 114.541 325.54C121.513 325.93 129.24 334.302 130.436 320.34C130.866 315.885 130.008 311.401 127.965 307.418Z" fill="#04373B"/>
<defs>
<linearGradient id="paint0_linear_160_6660" x1="343.127" y1="52.3532" x2="453.927" y2="379.487" gradientUnits="userSpaceOnUse">
<stop stop-color="#04373B" stop-opacity="0.6"/>
<stop offset="1" stop-color="#35B9B2" stop-opacity="0.4"/>
</linearGradient>
<linearGradient id="paint1_linear_160_6660" x1="366.68" y1="52.5947" x2="501.856" y2="356.684" gradientUnits="userSpaceOnUse">
<stop stop-color="#04373B" stop-opacity="0.6"/>
<stop offset="1" stop-color="#35B9B2" stop-opacity="0.4"/>
</linearGradient>
<linearGradient id="paint2_linear_160_6660" x1="705.342" y1="102.687" x2="705.342" y2="221.438" gradientUnits="userSpaceOnUse">
<stop stop-color="white" stop-opacity="0.2"/>
<stop offset="1" stop-color="white" stop-opacity="0.3"/>
</linearGradient>
<linearGradient id="paint3_linear_160_6660" x1="1122.98" y1="0.131836" x2="1122.98" y2="264.026" gradientUnits="userSpaceOnUse">
<stop stop-color="white" stop-opacity="0.2"/>
<stop offset="1" stop-color="white" stop-opacity="0.3"/>
</linearGradient>
<linearGradient id="paint4_linear_160_6660" x1="1031.86" y1="-58.7586" x2="1309.17" y2="277.422" gradientUnits="userSpaceOnUse">
<stop stop-color="#04373B" stop-opacity="0.6"/>
<stop offset="1" stop-color="#35B9B2" stop-opacity="0.4"/>
</linearGradient>
<linearGradient id="paint5_linear_160_6660" x1="-200.406" y1="-83.7932" x2="-4.80412" y2="540.808" gradientUnits="userSpaceOnUse">
<stop stop-color="#04373B" stop-opacity="0.6"/>
<stop offset="1" stop-color="#35B9B2" stop-opacity="0.4"/>
</linearGradient>
<linearGradient id="paint6_linear_160_6660" x1="486.43" y1="35.2251" x2="486.43" y2="270.42" gradientUnits="userSpaceOnUse">
<stop stop-color="white" stop-opacity="0.2"/>
<stop offset="1" stop-color="white" stop-opacity="0.3"/>
</linearGradient>
<linearGradient id="paint7_linear_160_6660" x1="927.998" y1="102.421" x2="927.998" y2="377.669" gradientUnits="userSpaceOnUse">
<stop stop-color="white" stop-opacity="0.2"/>
<stop offset="1" stop-color="white" stop-opacity="0.3"/>
</linearGradient>
<linearGradient id="paint8_linear_160_6660" x1="211.322" y1="21.8997" x2="396.867" y2="637.748" gradientUnits="userSpaceOnUse">
<stop stop-color="#04373B" stop-opacity="0.6"/>
<stop offset="1" stop-color="#35B9B2" stop-opacity="0.4"/>
</linearGradient>
<linearGradient id="paint9_linear_160_6660" x1="845.704" y1="4.77187" x2="1127.09" y2="572.993" gradientUnits="userSpaceOnUse">
<stop stop-color="#04373B" stop-opacity="0.6"/>
<stop offset="1" stop-color="#35B9B2" stop-opacity="0.4"/>
</linearGradient>
<linearGradient id="paint10_linear_160_6660" x1="653.847" y1="19.7006" x2="873.336" y2="625.319" gradientUnits="userSpaceOnUse">
<stop stop-color="#04373B" stop-opacity="0.6"/>
<stop offset="1" stop-color="#35B9B2" stop-opacity="0.4"/>
</linearGradient>
<linearGradient id="paint11_linear_160_6660" x1="-406.18" y1="55.6285" x2="-318.095" y2="674.671" gradientUnits="userSpaceOnUse">
<stop stop-color="#04373B" stop-opacity="0.6"/>
<stop offset="1" stop-color="#35B9B2" stop-opacity="0.4"/>
</linearGradient>
<linearGradient id="paint12_linear_160_6660" x1="-391.864" y1="15.2813" x2="-236.59" y2="817.649" gradientUnits="userSpaceOnUse">
<stop stop-color="#04373B" stop-opacity="0.6"/>
<stop offset="1" stop-color="#35B9B2" stop-opacity="0.4"/>
</linearGradient>
</defs>
</svg>
